<?xml version="1.0" encoding="UTF-8"?>
<!DOCTYPE svg PUBLIC "-//W3C//DTD SVG 1.1//EN" "http://www.w3.org/Graphics/SVG/1.1/DTD/svg11.dtd">
<!-- Creator: CorelDRAW 2019 (64-Bit) -->
<svg xmlns="http://www.w3.org/2000/svg" xml:space="preserve" width="210mm" height="297mm" version="1.1" style="shape-rendering:geometricPrecision; text-rendering:geometricPrecision; image-rendering:optimizeQuality; fill-rule:evenodd; clip-rule:evenodd"
viewBox="0 0 21000 29700"
 xmlns:xlink="http://www.w3.org/1999/xlink"
 xmlns:xodm="http://www.corel.com/coreldraw/odm/2003"
 aria-hidden="true"
 focusable="false"
 data-prefix="fas"
 data-icon="warehouse"
 role="img">
 <defs>
  <style type="text/css">
   <![CDATA[
    .fil0 {fill:#3ECFBC;fill-rule:nonzero}
   ]]>
  </style>
 </defs>
 <g id="Capa_x0020_1">
  <metadata id="CorelCorpID_0Corel-Layer"/>
  <g id="warehouse-solid.svg">
   <path class="fil0" d="M16530.37 18000.11l-12061.88 0c-144.38,0 -262.5,118.13 -262.5,262.5l-3.28 1575c0,144.38 118.13,262.5 262.5,262.5l12065.16 0c144.38,0 262.5,-118.13 262.5,-262.5l0 -1575c0,-144.38 -118.13,-262.5 -262.5,-262.5zm0 3150l-12071.72 0c-144.38,0 -262.5,118.13 -262.5,262.5l-3.28 1575c0,144.38 118.13,262.5 262.5,262.5l12075 0c144.38,0 262.5,-118.13 262.5,-262.5l0 -1575c0,-144.38 -118.13,-262.5 -262.5,-262.5zm0 -6300l-12055.31 0c-144.38,0 -262.5,118.13 -262.5,262.5l-3.28 1575c0,144.38 118.13,262.5 262.5,262.5l12058.59 0c144.38,0 262.5,-118.13 262.5,-262.5l0 -1575c0,-144.38 -118.13,-262.5 -262.5,-262.5zm3494.53 -4560.94l-8928.28 -3717.65c-191.66,-79.5 -397.66,-120.58 -605.37,-120.58 -207.74,0 -413.74,41.08 -605.47,120.55l-8924.94 3717.68c-584.06,246.1 -967.97,817.03 -967.97,1453.6l0 11244.84c0,144.38 118.13,262.5 262.5,262.5l2625 0c144.38,0 262.5,-118.13 262.5,-262.5l0 -8137.5c0,-577.5 479.06,-1050 1069.69,-1050l12560.62 0c590.63,0 1069.69,472.5 1069.69,1050l0 8137.5c0,144.38 118.13,262.5 262.5,262.5l2625 0c144.38,0 262.5,-118.13 262.5,-262.5l0 -11244.84c0,-636.56 -383.91,-1207.5 -967.97,-1453.59l0 -0.01z"/>
  </g>
 </g>
</svg>
